<mxfile host="app.diagrams.net" modified="2024-07-24T03:22:51.033Z" agent="Mozilla/5.0 (Macintosh; Intel Mac OS X 10_15_7) AppleWebKit/537.36 (KHTML, like Gecko) Chrome/126.0.0.0 Safari/537.36" version="24.6.4" etag="aaqg9xk4VXpE1YftoNOl" type="github">
  <diagram name="Page-1" id="B-EktwNlSDIYhisM1TTu">
    <mxGraphModel>
      <root>
        <mxCell id="0" />
        <mxCell id="1" parent="0" />
      </root>
    </mxGraphModel>
  </diagram>
</mxfile>
